<svg width="13" height="22" viewBox="0 0 13 22" fill="none" xmlns="http://www.w3.org/2000/svg">
<g clip-path="url(#clip0_11_83)">
<path d="M11.2271 2.74859C11.3173 2.65312 11.3878 2.54081 11.4347 2.41808C11.4815 2.29536 11.5037 2.16461 11.4999 2.03331C11.4962 1.902 11.4667 1.77272 11.413 1.65283C11.3593 1.53295 11.2826 1.42481 11.1871 1.33459C11.0916 1.24437 10.9793 1.17384 10.8566 1.12703C10.7339 1.08021 10.6031 1.05803 10.4718 1.06174C10.3405 1.06545 10.2112 1.09499 10.0913 1.14867C9.97145 1.20235 9.86331 1.27912 9.77309 1.37459L1.27309 10.3746C1.09755 10.5603 0.999745 10.8061 0.999745 11.0616C0.999745 11.3171 1.09755 11.5629 1.27309 11.7486L9.77309 20.7496C9.86271 20.8472 9.97083 20.9259 10.0912 20.9814C10.2115 21.0368 10.3416 21.0677 10.474 21.0724C10.6064 21.0772 10.7384 21.0555 10.8624 21.0088C10.9863 20.962 11.0998 20.8911 11.1961 20.8001C11.2924 20.7092 11.3697 20.6 11.4235 20.4789C11.4772 20.3579 11.5064 20.2273 11.5093 20.0949C11.5122 19.9624 11.4887 19.8307 11.4403 19.7074C11.3918 19.5841 11.3194 19.4717 11.2271 19.3766L3.37509 11.0616L11.2271 2.74859Z" fill="#C2C2C2"/>
</g>
<defs>
<clipPath id="clip0_11_83">
<rect width="12" height="21" fill="white" transform="matrix(-1 0 0 1 12.5 0.780823)"/>
</clipPath>
</defs>
</svg>
