<svg width="13" height="22" viewBox="0 0 13 22" fill="none" xmlns="http://www.w3.org/2000/svg">
<g clip-path="url(#clip0_11_86)">
<path d="M1.77291 2.74859C1.68269 2.65312 1.61216 2.54081 1.56535 2.41808C1.51853 2.29536 1.49635 2.16461 1.50006 2.03331C1.50378 1.902 1.53332 1.77272 1.58699 1.65283C1.64067 1.53295 1.71744 1.42481 1.81291 1.33459C1.90838 1.24437 2.02069 1.17384 2.14342 1.12703C2.26615 1.08021 2.39689 1.05803 2.5282 1.06174C2.6595 1.06545 2.78878 1.09499 2.90867 1.14867C3.02855 1.20235 3.13669 1.27912 3.22691 1.37459L11.7269 10.3746C11.9024 10.5603 12.0003 10.8061 12.0003 11.0616C12.0003 11.3171 11.9024 11.5629 11.7269 11.7486L3.22691 20.7496C3.13729 20.8472 3.02917 20.9259 2.90885 20.9814C2.78852 21.0368 2.65838 21.0677 2.52599 21.0724C2.39359 21.0772 2.26158 21.0555 2.13762 21.0088C2.01367 20.962 1.90023 20.8911 1.80391 20.8001C1.70759 20.7092 1.6303 20.6 1.57654 20.4789C1.52277 20.3579 1.4936 20.2273 1.49072 20.0949C1.48783 19.9624 1.51129 19.8307 1.55974 19.7074C1.60818 19.5841 1.68064 19.4717 1.77291 19.3766L9.62491 11.0616L1.77291 2.74859Z" fill="#C2C2C2"/>
</g>
<defs>
<clipPath id="clip0_11_86">
<rect width="12" height="21" fill="white" transform="translate(0.5 0.780823)"/>
</clipPath>
</defs>
</svg>
